<svg aria-hidden="true" style="position: absolute; width: 0; height: 0; overflow: hidden;" version="1.1" xmlns="http://www.w3.org/2000/svg" xmlns:xlink="http://www.w3.org/1999/xlink">
<defs>
<symbol id="icon-bookmark" viewBox="0 0 60 60">
<title>bookmark</title>
<path d="M42 6v51l-12-12-12 12v-51c0-1.659 1.755-3.060 3-3h18c2.067-0.060 3 1.341 3 3z"></path>
</symbol>
<symbol id="icon-chevron-thin-right" viewBox="0 0 60 60">
<title>chevron-thin-right</title>
<path d="M39.75 30l-21.423-22.26c-0.804-0.81-0.804-2.121 0-2.937 0.804-0.81 2.103-0.81 2.907 0l23.49 23.724c0.804 0.813 0.804 2.127 0 2.937l-23.49 23.724c-0.804 0.813-2.103 0.81-2.907 0-0.804-0.807-0.804-2.121 0-2.937l21.423-22.251z"></path>
</symbol>
<symbol id="icon-aircraft-take-off" viewBox="0 0 60 60">
<title>aircraft-take-off</title>
<path d="M59.61 19.359c0.357 0.771 0.381 3.87-14.652 10.926l-14.739 6.918c-5.13 2.409-12.573 5.577-15.855 6.453-2.298 0.612-4.491-0.948-4.491-0.948s-6.618-5.925-8.376-7.257c-1.755-1.332-1.605-2.010 0.645-2.73 1.401-0.447 9.39 1.479 12.795 2.34 4.017-2.4 7.686-4.458 9.423-5.394-4.188-3.099-12.024-8.886-14.523-10.65-2.397-1.695 0.030-2.304 0.030-2.304 1.104-0.297 3.486-0.684 4.686-0.432 8.163 1.707 21.789 6.213 22.833 6.558 2.496-1.308 6.384-3.276 8.766-4.395 6.225-2.922 12.981-0.111 13.458 0.915z"></path>
</symbol>
<symbol id="icon-chat" viewBox="0 0 60 60">
<title>chat</title>
<path d="M17.4 36.6v-18.6h-11.4c-3.3 0-6 2.7-6 6v18c0 3.3 2.7 6 6 6h3v9l9-9h15c3.3 0 6-2.7 6-6v-5.46c-0.192 0.042-0.396 0.063-0.6 0.063l-21-0.003zM54 3h-27c-3.3 0-6 2.7-6 6v24h21l9 9v-9h3c3.3 0 6-2.697 6-6v-18c0-3.3-2.7-6-6-6z"></path>
</symbol>
<symbol id="icon-home" viewBox="0 0 60 60">
<title>home</title>
<path d="M56.016 33h-5.016v18c0 1.335-0.582 3-3 3h-12v-18h-12v18h-12c-2.418 0-3-1.665-3-3v-18h-5.016c-1.794 0-1.41-0.972-0.18-2.244l24.072-24.096c0.585-0.606 1.353-0.906 2.124-0.936 0.771 0.030 1.539 0.327 2.124 0.936l24.069 24.093c1.233 1.275 1.617 2.247-0.177 2.247z"></path>
</symbol>
<symbol id="icon-key" viewBox="0 0 60 60">
<title>key</title>
<path d="M53.073 14.175c-1.509-8.931-9.66-14.901-18.207-13.323-8.55 1.575-15.768 8.448-14.259 17.385 0.321 1.923 1.224 4.932 2.289 7.095l-15.525 23.169c-0.573 0.855-0.897 2.397-0.726 3.423l0.999 5.913c0.174 1.026 1.116 1.716 2.1 1.542l4.548-0.843c0.984-0.177 2.232-1.044 2.772-1.917l6.141-9.933 0.054-0.066 4.158-0.768 7.17-11.637c2.355 0.417 5.736 0.276 7.734-0.093 8.544-1.578 12.261-11.010 10.752-19.947zM45.498 18.756c-2.352 3.51-4.752 1.038-8.109-1.425-3.357-2.454-6.405-3.966-4.056-7.476 2.352-3.51 6.978-4.365 10.341-1.905 3.36 2.457 4.173 7.296 1.824 10.806z"></path>
</symbol>
<symbol id="icon-location-pin" viewBox="0 0 60 60">
<title>location-pin</title>
<path d="M30 6.027c-8.286 0-15 6.687-15 14.97 0 14.322 15 33 15 33s15-18.681 15-33c0-8.28-6.714-14.97-15-14.97zM30 29.28c-4.476 0-8.1-3.627-8.1-8.1s3.624-8.1 8.1-8.1c4.47 0 8.097 3.627 8.097 8.1s-3.627 8.1-8.097 8.1z"></path>
</symbol>
<symbol id="icon-magnifying-glass" viewBox="0 0 60 60">
<title>magnifying-glass</title>
<path d="M52.635 46.401l-11.337-11.337c1.71-2.805 2.694-6.105 2.694-9.63 0-10.251-8.883-19.131-19.134-19.131-10.251-0.003-18.558 8.307-18.558 18.558 0 10.248 8.883 19.131 19.131 19.131 3.411 0 6.6-0.927 9.345-2.532l11.397 11.403c1.116 1.113 2.925 1.113 4.038 0l2.829-2.829c1.113-1.113 0.708-2.52-0.405-3.633zM12.012 24.861c0-7.098 5.751-12.849 12.846-12.849 7.098 0 13.422 6.321 13.422 13.422 0 7.095-5.754 12.849-12.849 12.849-7.098-0.003-13.419-6.327-13.419-13.422z"></path>
</symbol>
<symbol id="icon-map" viewBox="0 0 60 60">
<title>map</title>
<path d="M58.341 11.154l-18-9c-0.843-0.423-1.839-0.423-2.685 0l-16.89 8.445-16.818-5.607c-0.918-0.306-1.92-0.153-2.703 0.414-0.783 0.564-1.245 1.47-1.245 2.433v39.003c0 1.137 0.642 2.175 1.659 2.682l18 9c0.423 0.21 0.882 0.318 1.341 0.318s0.921-0.105 1.341-0.318l16.89-8.442 16.818 5.607c0.915 0.3 1.92 0.147 2.703-0.417s1.245-1.47 1.245-2.43v-39.006c0.003-1.137-0.639-2.175-1.656-2.682zM24 15.693l12-6v35.289l-12 6v-35.289zM6 12l12 3.999v34.983l-12-6v-32.982zM54 48.681l-12-4.002v-34.986l12 6v32.988z"></path>
</symbol>
<symbol id="icon-star" viewBox="0 0 60 60">
<title>star</title>
<path d="M30 3.9l7.164 20.166h19.236l-15.696 11.844 5.613 20.784-16.317-12.462-16.314 12.462 5.61-20.784-15.699-11.844h19.236l7.167-20.166z"></path>
</symbol>
</defs>
</svg>
